# xmcd
#
# Track frame offsets: 
#        150
#        13105
#        26505
#        37310
#        51622
#        62197
#        74112
#        84095
#        95742
#        108322
#        123077
#        137347
#        148650
#
# Disc length: 2150 seconds
#
# Revision: 12
# Processed by: cddbd v1.5.2PL0 Copyright (c) Steve Scherf et al.
# Submitted via: ExactAudioCopy v0.99pb4
#
DISCID=be08640d
DTITLE=Johnny Horton - Johnny Horton's Greatest Hits
DYEAR=1987
DGENRE=Country
TTITLE0=North To Alaska
TTITLE1=Whispering Pines
TTITLE2=Johnny Reb
TTITLE3=The Mansion You Stole
TTITLE4=I'm Ready If You're Willing
TTITLE5=When It's Springtime In Alaska (It's Forty Below)
TTITLE6=Honky Tonk Man
TTITLE7=The Battle Of New Orleans
TTITLE8=All For The Love Of A Girl
TTITLE9=Sink The Bismark
TTITLE10=Comanche (The Brave Horse)
TTITLE11=Jim Bridger
TTITLE12=Johnny Freedom
EXTD=ID3G: 2
EXTT0=
EXTT1=
EXTT2=
EXTT3=
EXTT4=
EXTT5=(It's Forty Below]\n
EXTT6=
EXTT7=
EXTT8=
EXTT9=
EXTT10=(The Brave Horse]\n
EXTT11=
EXTT12=
PLAYORDER=
